<svg xmlns="http://www.w3.org/2000/svg" xmlns:xlink="http://www.w3.org/1999/xlink" width="1920" zoomAndPan="magnify" viewBox="0 0 1440 299.999988" height="400" preserveAspectRatio="xMidYMid meet" version="1.0"><defs><g/><clipPath id="2c9573010e"><rect x="0" width="15" y="0" height="53"/></clipPath></defs><g fill="#0b3756" fill-opacity="1"><g transform="translate(-16.816881, 267.284803)"><g><path d="M 80.375 -69.21875 L 63.796875 -52.625 L 63.796875 0 L 17.703125 0 L 17.703125 -244.96875 L 63.796875 -244.96875 L 63.796875 -109.25 L 72.71875 -120.734375 L 116.90625 -172.5625 L 172.25 -172.5625 L 109.890625 -100.640625 L 177.671875 0 L 124.71875 0 Z M 80.375 -69.21875 "/></g></g><g transform="translate(157.655535, 267.284803)"><g><path d="M 30.296875 0 L 30.296875 -138.75 L 4.625 -138.75 L 4.625 -172.5625 L 30.296875 -172.5625 L 30.296875 -187.234375 C 30.296875 -206.585938 35.851562 -221.601562 46.96875 -232.28125 C 58.082031 -242.96875 73.632812 -248.3125 93.625 -248.3125 C 100 -248.3125 107.8125 -247.25 117.0625 -245.125 L 116.578125 -209.40625 C 112.753906 -210.363281 108.078125 -210.84375 102.546875 -210.84375 C 85.210938 -210.84375 76.546875 -202.707031 76.546875 -186.4375 L 76.546875 -172.5625 L 110.84375 -172.5625 L 110.84375 -138.75 L 76.546875 -138.75 L 76.546875 0 Z M 30.296875 0 "/></g></g><g transform="translate(274.714725, 267.284803)"><g><path d="M 70.65625 -37.15625 L 155.015625 -37.15625 L 155.015625 0 L 11.796875 0 L 11.796875 -28.0625 L 92.984375 -135.25 L 14.1875 -135.25 L 14.1875 -172.5625 L 152.46875 -172.5625 L 152.46875 -145.296875 Z M 70.65625 -37.15625 "/></g></g></g><g fill="#ff6600" fill-opacity="1"><g transform="translate(440.905741, 267.284803)"><g><path d="M 173.203125 -84.6875 C 173.203125 -57.039062 167.300781 -35.484375 155.5 -20.015625 C 143.695312 -4.546875 127.21875 3.1875 106.0625 3.1875 C 87.34375 3.1875 72.40625 -3.988281 61.25 -18.34375 L 59.171875 0 L 17.703125 0 L 17.703125 -244.96875 L 63.796875 -244.96875 L 63.796875 -157.09375 C 74.429688 -169.53125 88.410156 -175.75 105.734375 -175.75 C 126.785156 -175.75 143.289062 -168.015625 155.25 -152.546875 C 167.21875 -137.078125 173.203125 -115.304688 173.203125 -87.234375 Z M 127.109375 -88.03125 C 127.109375 -105.46875 124.34375 -118.195312 118.8125 -126.21875 C 113.28125 -134.25 105.039062 -138.265625 94.09375 -138.265625 C 79.425781 -138.265625 69.328125 -132.257812 63.796875 -120.25 L 63.796875 -52.15625 C 69.429688 -40.03125 79.640625 -33.96875 94.421875 -33.96875 C 109.304688 -33.96875 119.085938 -41.304688 123.765625 -55.984375 C 125.992188 -62.992188 127.109375 -73.675781 127.109375 -88.03125 Z M 127.109375 -88.03125 "/></g></g><g transform="translate(624.787546, 267.284803)"><g><path d="M 66.34375 0 L 20.09375 0 L 20.09375 -244.96875 L 66.34375 -244.96875 Z M 66.34375 0 "/></g></g><g transform="translate(711.38583, 267.284803)"><g><path d="M 66.34375 0 L 20.09375 0 L 20.09375 -172.5625 L 66.34375 -172.5625 Z M 17.390625 -217.21875 C 17.390625 -224.125 19.703125 -229.8125 24.328125 -234.28125 C 28.953125 -238.75 35.25 -240.984375 43.21875 -240.984375 C 51.082031 -240.984375 57.351562 -238.75 62.03125 -234.28125 C 66.71875 -229.8125 69.0625 -224.125 69.0625 -217.21875 C 69.0625 -210.195312 66.691406 -204.453125 61.953125 -199.984375 C 57.222656 -195.523438 50.976562 -193.296875 43.21875 -193.296875 C 35.457031 -193.296875 29.210938 -195.523438 24.484375 -199.984375 C 19.753906 -204.453125 17.390625 -210.195312 17.390625 -217.21875 Z M 17.390625 -217.21875 "/></g></g></g><g fill="#ff6600" fill-opacity="1"><g transform="translate(797.984125, 267.284803)"><g><path d="M 72.890625 -214.984375 L 72.890625 -172.5625 L 102.390625 -172.5625 L 102.390625 -138.75 L 72.890625 -138.75 L 72.890625 -52.625 C 72.890625 -46.25 74.109375 -41.675781 76.546875 -38.90625 C 78.992188 -36.144531 83.675781 -34.765625 90.59375 -34.765625 C 95.695312 -34.765625 100.210938 -35.140625 104.140625 -35.890625 L 104.140625 -0.953125 C 95.109375 1.804688 85.804688 3.1875 76.234375 3.1875 C 43.910156 3.1875 27.429688 -13.128906 26.796875 -45.765625 L 26.796875 -138.75 L 1.59375 -138.75 L 1.59375 -172.5625 L 26.796875 -172.5625 L 26.796875 -214.984375 Z M 72.890625 -214.984375 "/></g></g></g><g fill="#ff6600" fill-opacity="1"><g transform="translate(908.345077, 267.284803)"><g><path d="M 70.65625 -37.15625 L 155.015625 -37.15625 L 155.015625 0 L 11.796875 0 L 11.796875 -28.0625 L 92.984375 -135.25 L 14.1875 -135.25 L 14.1875 -172.5625 L 152.46875 -172.5625 L 152.46875 -145.296875 Z M 70.65625 -37.15625 "/></g></g></g><g fill="#0b3756" fill-opacity="1"><g transform="translate(1074.526779, 267.284803)"><g><path d="M 174.953125 0 L 15.78125 0 L 15.78125 -31.578125 L 90.90625 -111.640625 C 101.21875 -122.910156 108.84375 -132.742188 113.78125 -141.140625 C 118.726562 -149.546875 121.203125 -157.519531 121.203125 -165.0625 C 121.203125 -175.375 118.597656 -183.476562 113.390625 -189.375 C 108.179688 -195.28125 100.738281 -198.234375 91.0625 -198.234375 C 80.644531 -198.234375 72.429688 -194.644531 66.421875 -187.46875 C 60.421875 -180.289062 57.421875 -170.859375 57.421875 -159.171875 L 11.15625 -159.171875 C 11.15625 -173.304688 14.53125 -186.222656 21.28125 -197.921875 C 28.039062 -209.617188 37.585938 -218.789062 49.921875 -225.4375 C 62.253906 -232.082031 76.234375 -235.40625 91.859375 -235.40625 C 115.785156 -235.40625 134.363281 -229.660156 147.59375 -218.171875 C 160.832031 -206.691406 167.453125 -190.476562 167.453125 -169.53125 C 167.453125 -158.050781 164.472656 -146.351562 158.515625 -134.4375 C 152.566406 -122.53125 142.363281 -108.65625 127.90625 -92.8125 L 75.125 -37.15625 L 174.953125 -37.15625 Z M 174.953125 0 "/></g></g><g transform="translate(1261.917172, 267.284803)"><g><path d="M 152.15625 -87.390625 L 178.46875 -87.390625 L 178.46875 -50.234375 L 152.15625 -50.234375 L 152.15625 0 L 106.0625 0 L 106.0625 -50.234375 L 10.84375 -50.234375 L 8.765625 -79.265625 L 105.578125 -232.203125 L 152.15625 -232.203125 Z M 54.703125 -87.390625 L 106.0625 -87.390625 L 106.0625 -169.375 L 103.03125 -164.109375 Z M 54.703125 -87.390625 "/></g></g></g><g transform="matrix(1, 0, 0, 1, 477, 157)"><g clip-path="url(#2c9573010e)"><g fill="#ff6600" fill-opacity="1"><g transform="translate(0.945024, 40.973973)"><g><path d="M 2.71875 -3.0625 C 2.71875 -4.050781 3.050781 -4.851562 3.71875 -5.46875 C 4.394531 -6.09375 5.234375 -6.40625 6.234375 -6.40625 C 7.253906 -6.40625 8.097656 -6.09375 8.765625 -5.46875 C 9.441406 -4.851562 9.78125 -4.050781 9.78125 -3.0625 C 9.78125 -2.082031 9.445312 -1.285156 8.78125 -0.671875 C 8.125 -0.0664062 7.273438 0.234375 6.234375 0.234375 C 5.210938 0.234375 4.367188 -0.0664062 3.703125 -0.671875 C 3.046875 -1.285156 2.71875 -2.082031 2.71875 -3.0625 Z M 2.71875 -3.0625 "/></g></g></g></g></g></svg>