<svg xmlns="http://www.w3.org/2000/svg" xmlns:xlink="http://www.w3.org/1999/xlink" width="136" zoomAndPan="magnify" viewBox="0 0 102 35.25" height="47" preserveAspectRatio="xMidYMid meet" version="1.0"><defs><g/><clipPath id="75f033a72c"><path d="M 76 4 L 86.886719 4 L 86.886719 19 L 76 19 Z M 76 4 " clip-rule="nonzero"/></clipPath><clipPath id="d4d24ac06b"><rect x="0" width="87" y="0" height="24"/></clipPath><clipPath id="19c869adf9"><path d="M 0.546875 3 L 1.488281 3 L 1.488281 4 L 0.546875 4 Z M 0.546875 3 " clip-rule="nonzero"/></clipPath><clipPath id="2f0c3e90e9"><rect x="0" width="2" y="0" height="5"/></clipPath></defs><g transform="matrix(1, 0, 0, 1, 7, 5)"><g clip-path="url(#d4d24ac06b)"><g fill="#ffffff" fill-opacity="1"><g transform="translate(0.612116, 18.459029)"><g><path d="M 4.71875 -4.0625 L 3.75 -3.09375 L 3.75 0 L 1.046875 0 L 1.046875 -14.375 L 3.75 -14.375 L 3.75 -6.40625 L 4.265625 -7.09375 L 6.859375 -10.125 L 10.109375 -10.125 L 6.453125 -5.90625 L 10.421875 0 L 7.328125 0 Z M 4.71875 -4.0625 "/></g></g></g><g fill="#ffffff" fill-opacity="1"><g transform="translate(10.856666, 18.459029)"><g><path d="M 1.78125 0 L 1.78125 -8.140625 L 0.265625 -8.140625 L 0.265625 -10.125 L 1.78125 -10.125 L 1.78125 -10.984375 C 1.78125 -12.117188 2.101562 -13 2.75 -13.625 C 3.40625 -14.257812 4.320312 -14.578125 5.5 -14.578125 C 5.875 -14.578125 6.332031 -14.515625 6.875 -14.390625 L 6.84375 -12.296875 C 6.613281 -12.347656 6.335938 -12.375 6.015625 -12.375 C 5.003906 -12.375 4.5 -11.894531 4.5 -10.9375 L 4.5 -10.125 L 6.5 -10.125 L 6.5 -8.140625 L 4.5 -8.140625 L 4.5 0 Z M 1.78125 0 "/></g></g></g><g fill="#ffffff" fill-opacity="1"><g transform="translate(17.730066, 18.459029)"><g><path d="M 4.140625 -2.1875 L 9.09375 -2.1875 L 9.09375 0 L 0.6875 0 L 0.6875 -1.640625 L 5.453125 -7.9375 L 0.828125 -7.9375 L 0.828125 -10.125 L 8.953125 -10.125 L 8.953125 -8.53125 Z M 4.140625 -2.1875 "/></g></g></g><g fill="#ff6600" fill-opacity="1"><g transform="translate(27.488739, 18.459029)"><g><path d="M 10.171875 -4.96875 C 10.171875 -3.34375 9.820312 -2.078125 9.125 -1.171875 C 8.4375 -0.265625 7.46875 0.1875 6.21875 0.1875 C 5.125 0.1875 4.25 -0.234375 3.59375 -1.078125 L 3.46875 0 L 1.046875 0 L 1.046875 -14.375 L 3.75 -14.375 L 3.75 -9.21875 C 4.375 -9.945312 5.191406 -10.3125 6.203125 -10.3125 C 7.441406 -10.3125 8.410156 -9.859375 9.109375 -8.953125 C 9.816406 -8.046875 10.171875 -6.769531 10.171875 -5.125 Z M 7.453125 -5.171875 C 7.453125 -6.191406 7.289062 -6.9375 6.96875 -7.40625 C 6.644531 -7.875 6.160156 -8.109375 5.515625 -8.109375 C 4.660156 -8.109375 4.070312 -7.757812 3.75 -7.0625 L 3.75 -3.0625 C 4.070312 -2.351562 4.671875 -2 5.546875 -2 C 6.421875 -2 6.992188 -2.425781 7.265625 -3.28125 C 7.390625 -3.695312 7.453125 -4.328125 7.453125 -5.171875 Z M 7.453125 -5.171875 "/></g></g></g><g fill="#ff6600" fill-opacity="1"><g transform="translate(38.285783, 18.459029)"><g><path d="M 3.890625 0 L 1.171875 0 L 1.171875 -14.375 L 3.890625 -14.375 Z M 3.890625 0 "/></g></g></g><g fill="#ff6600" fill-opacity="1"><g transform="translate(43.370601, 18.459029)"><g><path d="M 3.890625 0 L 1.171875 0 L 1.171875 -10.125 L 3.890625 -10.125 Z M 1.015625 -12.75 C 1.015625 -13.15625 1.148438 -13.488281 1.421875 -13.75 C 1.691406 -14.007812 2.0625 -14.140625 2.53125 -14.140625 C 3 -14.140625 3.367188 -14.007812 3.640625 -13.75 C 3.910156 -13.488281 4.046875 -13.15625 4.046875 -12.75 C 4.046875 -12.332031 3.90625 -11.992188 3.625 -11.734375 C 3.351562 -11.472656 2.988281 -11.34375 2.53125 -11.34375 C 2.082031 -11.34375 1.71875 -11.472656 1.4375 -11.734375 C 1.15625 -11.992188 1.015625 -12.332031 1.015625 -12.75 Z M 1.015625 -12.75 "/></g></g></g><g fill="#ff6600" fill-opacity="1"><g transform="translate(48.455419, 18.459029)"><g><path d="M 4.28125 -12.625 L 4.28125 -10.125 L 6.015625 -10.125 L 6.015625 -8.140625 L 4.28125 -8.140625 L 4.28125 -3.09375 C 4.28125 -2.71875 4.347656 -2.445312 4.484375 -2.28125 C 4.628906 -2.125 4.90625 -2.046875 5.3125 -2.046875 C 5.613281 -2.046875 5.878906 -2.066406 6.109375 -2.109375 L 6.109375 -0.0625 C 5.578125 0.101562 5.03125 0.1875 4.46875 0.1875 C 2.570312 0.1875 1.609375 -0.769531 1.578125 -2.6875 L 1.578125 -8.140625 L 0.09375 -8.140625 L 0.09375 -10.125 L 1.578125 -10.125 L 1.578125 -12.625 Z M 4.28125 -12.625 "/></g></g></g><g fill="#ff6600" fill-opacity="1"><g transform="translate(54.935518, 18.459029)"><g><path d="M 4.140625 -2.1875 L 9.09375 -2.1875 L 9.09375 0 L 0.6875 0 L 0.6875 -1.640625 L 5.453125 -7.9375 L 0.828125 -7.9375 L 0.828125 -10.125 L 8.953125 -10.125 L 8.953125 -8.53125 Z M 4.140625 -2.1875 "/></g></g></g><g fill="#ffffff" fill-opacity="1"><g transform="translate(64.693256, 18.459029)"><g><path d="M 10.265625 0 L 0.921875 0 L 0.921875 -1.859375 L 5.328125 -6.546875 C 5.941406 -7.210938 6.390625 -7.789062 6.671875 -8.28125 C 6.960938 -8.78125 7.109375 -9.25 7.109375 -9.6875 C 7.109375 -10.289062 6.957031 -10.765625 6.65625 -11.109375 C 6.351562 -11.460938 5.914062 -11.640625 5.34375 -11.640625 C 4.726562 -11.640625 4.242188 -11.425781 3.890625 -11 C 3.546875 -10.582031 3.375 -10.03125 3.375 -9.34375 L 0.65625 -9.34375 C 0.65625 -10.175781 0.851562 -10.929688 1.25 -11.609375 C 1.644531 -12.296875 2.203125 -12.832031 2.921875 -13.21875 C 3.648438 -13.613281 4.472656 -13.8125 5.390625 -13.8125 C 6.796875 -13.8125 7.882812 -13.472656 8.65625 -12.796875 C 9.4375 -12.128906 9.828125 -11.179688 9.828125 -9.953125 C 9.828125 -9.273438 9.648438 -8.585938 9.296875 -7.890625 C 8.953125 -7.191406 8.351562 -6.378906 7.5 -5.453125 L 4.40625 -2.1875 L 10.265625 -2.1875 Z M 10.265625 0 "/></g></g></g><g clip-path="url(#75f033a72c)"><g fill="#ffffff" fill-opacity="1"><g transform="translate(75.696315, 18.459029)"><g><path d="M 8.9375 -5.125 L 10.46875 -5.125 L 10.46875 -2.953125 L 8.9375 -2.953125 L 8.9375 0 L 6.21875 0 L 6.21875 -2.953125 L 0.640625 -2.953125 L 0.515625 -4.65625 L 6.203125 -13.625 L 8.9375 -13.625 Z M 3.203125 -5.125 L 6.21875 -5.125 L 6.21875 -9.9375 L 6.046875 -9.625 Z M 3.203125 -5.125 "/></g></g></g></g></g></g><g transform="matrix(1, 0, 0, 1, 36, 16)"><g clip-path="url(#2f0c3e90e9)"><g clip-path="url(#19c869adf9)"><g fill="#ff6600" fill-opacity="1"><g transform="translate(0.708876, 3.421335)"><g><path d="M 0.15625 -0.1875 C 0.15625 -0.238281 0.175781 -0.28125 0.21875 -0.3125 C 0.257812 -0.351562 0.304688 -0.375 0.359375 -0.375 C 0.421875 -0.375 0.472656 -0.351562 0.515625 -0.3125 C 0.554688 -0.28125 0.578125 -0.238281 0.578125 -0.1875 C 0.578125 -0.125 0.554688 -0.0703125 0.515625 -0.03125 C 0.472656 0 0.421875 0.015625 0.359375 0.015625 C 0.304688 0.015625 0.257812 0 0.21875 -0.03125 C 0.175781 -0.0703125 0.15625 -0.125 0.15625 -0.1875 Z M 0.15625 -0.1875 "/></g></g></g></g></g></g></svg>